<svg xmlns="http://www.w3.org/2000/svg" width="374" height="396" xmlns:v="https://vecta.io/nano"><g fill="#1d1d1b"><path d="M65.05 203.372H45.108v-4.498l-2.436 1.64v7.162 2.674 8.531 2.705 8.964 1.632 5.522 2.682 10.202 1.637 2.345c-.438.281-.797.484-1.077.609-.906.406-1.78.609-2.624.609-.593 0-1.179-.11-1.756-.329s-1.117-.578-1.615-1.077c-.843-.812-1.266-1.874-1.266-3.186 0-.655.071-1.233.211-1.733s.353-.968.633-1.405c.874-1.405 2.061-2.7 3.559-3.888.469-.375 1.109-.811 1.921-1.311h-1.593l-1.968 1.546c-1.528 1.342-2.716 2.686-3.559 4.028-.719 1.092-1.078 2.341-1.078 3.747 0 1.029.196 1.951.587 2.764s.998 1.483 1.826 2.014a4.97 4.97 0 0 0 2.739.797c1.124 0 2.312-.391 3.56-1.172.407-.248.907-.624 1.5-1.124v3.274 1.644 4.979 3.215 2.124l2.436-1.686v-2.124-2.858h8.431v7.464H47.01c-.839.156-1.478.326-1.912.513-1.307.56-2.131 1.413-2.473 2.562-.125.403-.187.69-.187.862v.58c0 1.119.341 1.996 1.021 2.632a3.42 3.42 0 0 0 2.415.954c.403 0 .774-.062 1.115-.187 1.58-.624 2.679-1.983 3.298-4.075.092-.344.185-.812.278-1.405h2.973v1.687l.19.562c.16.374.383.562.669.562.19 0 .413-.076.668-.231.572-.403 1.272-1.021 2.1-1.857.954-.989 1.432-1.732 1.432-2.228 0-.403-.218-.682-.655-.835-.125-.032-.344-.064-.656-.095h-1.312v-7.464h7.246l1.829-2.437H45.108v-2.854-1.643-1.213h18.068l1.873-2.438H45.108v-2.859-1.638-10.249-2.728-.129h8.178c-1.102.704-1.929 1.327-2.465 1.862-1.748 1.687-2.621 3.467-2.621 5.341 0 1.686.437 3.075 1.311 4.167s2.045 1.702 3.513 1.827c1.75 0 3.303-.789 4.661-2.365s2.037-3.271 2.037-5.082c0-1.75-.546-3.249-1.639-4.498-.318-.375-.821-.796-1.49-1.253h6.628l1.829-2.437H45.108v-2.862-1.634-.615h8.009l1.171-.327c.906-.344 1.656-.812 2.249-1.406.749-.749 1.28-1.522 1.592-2.319a6.68 6.68 0 0 0 .469-2.459c0-1.092-.28-2.231-.844-3.418-.155-.376-.421-.827-.795-1.358H55.23c.319-.188.609-.377.839-.574 1.031-.936 1.718-1.904 2.061-2.903s.516-2.265.516-3.794c0-.687-.25-1.593-.75-2.718l-.603-1.211h5.929l1.828-2.432zm-15.867 71.679c-.342.813-.843 1.421-1.498 1.827-.469.282-.999.422-1.593.422-.656 0-1.201-.148-1.64-.445a1.41 1.41 0 0 1-.656-1.24c0-.5.188-.906.562-1.219s.969-.468 1.78-.468h3.372l-.327 1.123zm5.293-38.284l1.265 1.641c.626.875 1.125 1.795 1.499 2.764s.562 1.827.562 2.577c0 .967-.268 1.716-.802 2.247s-1.367.796-2.498.796-2.051-.38-2.759-1.147-1.123-1.756-1.249-2.973v-.657c0-1.529.594-2.966 1.78-4.31.374-.437.952-.938 1.733-1.498l.469.56zm-9.368-16.868v-2.658-2.587c.281-.405.531-.686.749-.843.656-.53 1.327-.796 2.014-.796.625 0 1.164.243 1.615.726s.961 1.446 1.523 2.881a5.13 5.13 0 0 1 .28.937l.142.89.038-.011-6.361 7.422v-5.961zm10.41-.304c.867 1.497 1.301 2.837 1.301 4.021 0 1.09-.562 1.792-1.684 2.103-.373.094-.935.141-1.682.141h-6.31l7.071-8.18 1.304 1.915zm.597-5.503c-.312.75-.843 1.374-1.594 1.874-.249.157-.592.328-1.029.515l-.234-.703c-.438-1.218-.843-2.154-1.217-2.81s-.812-1.163-1.312-1.522-1.045-.538-1.64-.538c-.405 0-.866.116-1.381.35s-1.116.586-1.804 1.054l-.796.562v-4.211-2.582-.274h9.013l.214.274c.406.594.758 1.195 1.055 1.804l.679 1.476c.344.875.516 1.717.516 2.529-.001.718-.156 1.452-.47 2.202zm-9.81-58.11l17.9 2.461 2.188-2.158-19.506-2.683.883-4.872-2.802 1.487-.866 3.901c-.534-.01-.961-.006-1.279.014a14.78 14.78 0 0 0-2.694.338c-1.225.209-2.365.478-3.42.806-1.317.418-2.364.921-3.138 1.507-.881.667-1.392 1.527-1.537 2.578-.208 1.516.255 2.62 1.389 3.312.7.411 1.468.675 2.304.789.927.128 1.991.069 3.191-.176l1.422-.372.146-1.067c-.401.165-.714.264-.939.296a6.03 6.03 0 0 1-2.093.091c-.278-.039-.575-.111-.892-.217s-.589-.24-.819-.397c-.859-.623-1.229-1.382-1.106-2.279.149-1.083.901-1.91 2.257-2.48s2.937-.975 4.705-1.386c.824-.191 2.363-.337 2.363-.337-2.379 14.562-1.288 32.516-1.288 32.516l2.436-1.687v-12.506h6.933c-.906.718-1.562 1.311-1.968 1.779-1.28 1.469-1.92 2.904-1.92 4.31 0 1.591.453 2.809 1.357 3.653.781.719 1.795 1.079 3.044 1.079a6.12 6.12 0 0 0 2.249-.423c1.312-.53 2.326-1.294 3.045-2.295a5.63 5.63 0 0 0 1.077-3.372c0-1.031-.343-2.139-1.031-3.325-.217-.375-.545-.843-.983-1.406h6.314l1.824-2.436h-10.53c-.53-.656-.92-1.171-1.169-1.546-.75-1.156-1.124-2.123-1.124-2.904 0-1.061.234-1.826.703-2.295s1.077-.703 1.826-.703c.655 0 1.39.188 2.202.562.531.25 1.279.718 2.248 1.405.28.188.655.469 1.124.843l1.826-1.967c-.749-.562-1.358-.968-1.826-1.218-1.405-.812-2.653-1.264-3.747-1.359h-.516c-1.623 0-3.061.509-4.311 1.522s-1.873 2.225-1.873 3.63c0 .625.251 1.483.749 2.576.157.344.407.828.751 1.453h-6.276c0 .003.145-4.875 1.197-15.042zm6.017 18.747c.343-.375.874-.797 1.591-1.266.375.406.656.749.844 1.031a12.85 12.85 0 0 1 1.498 2.857c.189.469.305.819.352 1.055s.07.584.07 1.053c0 .718-.188 1.359-.562 1.919s-.953.954-1.733 1.172c-.25.063-.452.094-.608.094-.873 0-1.6-.352-2.179-1.054s-.866-1.631-.866-2.786a5.82 5.82 0 0 1 1.593-4.075zm74.314-131.426l2.602-1.182 7.488 16.493 2.975.659-8.244-18.158 4.094-1.859-2.5-1.541-8.956 4.067.081.048-5.522 2.76-1.708 1.055-.603.318.05.026-9.689 5.994-5.674 4.229-.067-.019-.654.536-.819.589.07.024-6.948 5.841s-9.671 8.815-12.81 12.744c-1.934 2.42-7.969 9.485-7.969 9.485l-.885.028c-.825-.016-1.669-.106-2.532-.273-.547-.114-1.036-.263-1.469-.445s-.882-.458-1.348-.828c-.489-.387-.849-.801-1.078-1.241s-.312-.915-.248-1.421.22-.921.473-1.239c.194-.245.426-.438.699-.582a1.21 1.21 0 0 1 .351-.141l-.113-.687c-.576.023-1.015.073-1.317.153-.973.224-1.722.667-2.245 1.328-.562.71-.727 1.436-.497 2.176s.726 1.411 1.484 2.011a6.21 6.21 0 0 0 2.745 1.249c1.024.192 2.491.388 4.403.587.274.045.636.07 1.053.082l-8.437 12.75-3.436 5.851-.859 1.818-.333.596.055-.005-4.726 10.274-2.673 6.863-.065.02-.615 1.73.075-.018-3.074 9.722 2.83-.875.692-2.188 7.146 2.259c.938-.063 1.677-.174 2.218-.331a6.92 6.92 0 0 0 3.865-2.904c.086-.169.229-.419.433-.748l.212-.67c.254-.804.339-1.693.255-2.669-.004-.225-.053-.499-.124-.8l6.27 2.439 2.572-1.594c-.299.297-.572.628-.791 1.028l-.237.559c-.403.948-.493 1.86-.272 2.736.081.271.235.608.462 1.01l2.694-1.553c-.233-.438-.387-.775-.462-1.01-.241-.748-.239-1.408.005-1.983.036-.086.145-.262.325-.523.444-.558 1.048-.674 1.81-.351.646.274 1.136.788 1.474 1.542s.372 1.651.103 2.691c-.02.126-.078.306-.176.535-.281.66-.809 1.335-1.583 2.025-.28.254-.736.62-1.369 1.098s-1.295.925-1.988 1.343c-.244.167-.605.371-1.084.608l.479 1.018c.572-.3 1.042-.559 1.409-.775a43.68 43.68 0 0 0 3.639-2.27c1.459-1.008 2.444-2.117 2.957-3.323.488-1.151.542-2.282.156-3.396-.283-.865-.918-1.508-1.905-1.928-1.132-.481-2.334-.56-3.604-.234a4.38 4.38 0 0 0-2.027 1.141l-18.579-7.231 1.403-3.604 4.695-9.933.073-.006 1.395-2.493 5.184 2.903-4.484 9.587c-.547 1.159-.44 1.917.321 2.278.623.293 1.648.278 3.079-.048s2.332-.728 2.698-1.211c.435-.624.043-1.224-1.171-1.797l-1.651-.78 3.254-6.885 8.574 4.802 2.787-1.231-17.4-9.743 8.791-13.654 5.703 3.94c-1.153.077-2.03.192-2.63.346-1.889.479-3.23 1.297-4.03 2.453-.906 1.31-1.226 2.569-.96 3.778.234 1.036.866 1.907 1.893 2.617a6.09 6.09 0 0 0 2.089.931c1.381.31 2.649.257 3.811-.157s2.093-1.134 2.803-2.161c.586-.848.934-1.954 1.044-3.322.032-.433.028-1.003-.011-1.716l5.195 3.591 2.884-.967-8.662-5.986c-.063-.841-.091-1.487-.082-1.937.04-1.376.282-2.385.727-3.028.604-.872 1.23-1.37 1.882-1.488s1.286.035 1.903.46c.539.373 1.035.944 1.491 1.714.294.509.645 1.319 1.05 2.434.125.313.273.758.446 1.332l2.62-.579c-.297-.889-.567-1.569-.811-2.041-.693-1.466-1.463-2.548-2.31-3.248l-.424-.293c-1.335-.923-2.806-1.322-4.411-1.199s-2.806.766-3.604 1.922c-.355.514-.639 1.363-.849 2.544-.067.373-.137.912-.21 1.621l-5.162-3.568 11.749-13.436L96.31 63.152l3.288 4.016c-.08.001-.167.002-.229.008-1.325.082-2.321.452-2.987 1.111-.712.703-1.059 1.75-1.044 3.141-.002.441.082 1.062.254 1.856-1.036-.115-1.854-.143-2.449-.079-1.835.145-3.218.677-4.149 1.6-.2.198-.489.539-.866 1.022s-.559 1.279-.541 2.384.487 2.125 1.412 3.059c.551.557 1.327 1.076 2.331 1.557s2.179.85 3.526 1.101c1.017.185 2.574.338 4.674.462.706.049 1.689.087 2.949.119l-.027-1.293-.796-.005-2.784-.152c-2.012-.256-3.116-.418-3.314-.486-1.613-.385-2.87-1.036-3.773-1.948-1.804-1.825-1.765-3.671.122-5.538.401-.395 1.152-.612 2.256-.65.333-.021.829-.006 1.491.04l.615 2.819 2.353-.418-.388-1.79c-.279-1.437-.428-2.542-.445-3.315-.021-.595.056-1.119.224-1.572s.386-.809.651-1.073c.443-.439 1.053-.689 1.826-.752.027-.001.067 0 .098-.001l.471.576c.819.459 1.499.771 2.038.935 1.639.474 3.247.368 4.825-.318.164-.095.421-.225.771-.39l.543-.444c.652-.535 1.21-1.233 1.674-2.097.118-.188.227-.443.33-.731l3.919 5.461 3.045.068-11.624-16.204 3.067-2.201 9.261-5.73.065.034 2.525-1.333 2.808 5.317-9.019 5.548c-1.089.674-1.411 1.369-.969 2.086.362.585 1.232 1.13 2.61 1.635s2.352.658 2.922.451c.704-.288.702-1.002-.005-2.145l-.961-1.554 6.481-4.011 4.587 8.69 3.008.481-9.308-17.636 2.969-1.567.015.007zM61.48 125.575c.445.812.761 1.441.94 1.885.566 1.424.73 2.507.495 3.252-.395 1.25-1.178 1.968-2.35 2.154-.375.046-.92.005-1.633-.123l-7.458-2.358 1.58-4.996.044-.012 1.037-2.662 7.345 2.86zm18.332-31.938c.076.547.112.99.107 1.327.008 1.032-.122 2.099-.392 3.203-.112.492-.216.846-.311 1.066s-.274.521-.542.908c-.407.591-.926 1.011-1.554 1.259s-1.326.242-2.091-.021a2.61 2.61 0 0 1-.555-.27c-.719-.497-1.116-1.198-1.193-2.105s.215-1.835.873-2.786a5.82 5.82 0 0 1 3.626-2.447c.499-.111 1.174-.158 2.032-.134zM109.2 63.063c-.071.917-.151 1.612-.242 2.081-.306 1.501-.759 2.498-1.362 2.993-1.015.832-2.063 1.004-3.147.52-.339-.167-.771-.499-1.299-.996l-4.957-6.051 4.041-3.309.042.015 2.321-1.667 4.603 6.414zm62.283-18.8l-5.097-5.126c2.549-.941 4.342-2.716 3.779-5.605-.557-2.862-3.318-3.928-7.095-3.194l-5.107 1.232c-1.545.3-2.912.447-3.993.539l.078.402 2.56.333c.667.078.793.261 1.317 2.95l2.017 10.36c.429 2.203.336 2.34-.415 2.753l-2.059 1.173.079.399 4.447-1.103c1.001-.195 2.941-.453 4.193-.579l-.077-.4-2.44-.327c-.793-.113-1.002-.726-1.727-4.446l-.639-3.291 2.202-.429c2.224 1.972 5.484 5.139 7.918 7.874.705-.197 1.408-.393 2.096-.526.657-.128 1.356-.205 2.024-.275l-.078-.402c-1.656.027-1.838-.146-3.983-2.312zm-8.417-5.252l-1.947.378-1.392-7.154 2.627-.541c2.689-.524 4.646.224 5.137 2.742.613 3.148-1.764 4.057-4.425 4.575zm28.52 2.398l-.407.019c-.441 1.743-.717 2.69-1.045 3.145-.275.364-.71.414-3.826.563l-4.055.079-.334-3.896-.19-3.961 3.029-.145c3.523-.171 3.876-.128 4.14.5l.864 2.177.408-.02-.229-3.521-.1-3.294-.408.021-.658 2.104c-.201.653-.548.728-4.071.897l-3.03.146-.173-3.582-.013-3.328 4.103-.256c3.35-.161 3.583-.172 3.912.63l.863 2.147.407-.02-.188-2.093-.02-2.219-8.057.622-6.854.097.02.408 2.485.697c.651.173.748.374.88 3.111l.508 10.542c.107 2.242-.002 2.364-.806 2.666l-2.206.866.02.407 7.444-.592 7.643-.134-.107-2.214c-.042-.843.034-1.723.051-2.569zm10.363-.844l-6.667-.364.111-2.037 6.667.364zm7.415 3.186l.574-5.189.755-5.224c.403-2.71.462-2.938 1.034-3.041l2.532-.501.052-.404-4.339-.32c-1.62-.207-3.022-.502-4.396-.795l-.051.406 2.325 1.12c.528.244.527.478.238 3.205l-.581 5.245-.755 5.224c-.312 2.224-.421 2.387-1.173 2.526l-2.319.439-.051.405 4.454.332c1.272.163 2.935.492 4.28.781l.051-.405-2.13-1.035c-.689-.353-.754-.538-.5-2.769zm27.204 8.108c.186-1.855 1.813-12.45 2.354-14.387.142-.506.412-.611 1.689-.74l1.369-.131.109-.393a136.81 136.81 0 0 1-5.454-1.281c-3.085 3.892-6.253 7.759-9.671 11.436-.75-4.902-1.473-9.796-1.982-14.69a126.49 126.49 0 0 1-5.302-1.722l-.108.393 1.436 1.037c.479.346.589.709.447 1.214-.581 2.079-3.325 9.091-5.251 13.276-.398.888-.55.997-1.635 1.087l-1.639.118-.108.393c1.126.193 2.253.388 3.348.693 1.207.337 2.355.778 3.531 1.228l.11-.393-1.318-.913c-.709-.501-.891-.824-.711-1.47.525-1.882 3.271-9.652 4.671-13.256l.056.016c.84 5.773 1.771 11.542 2.274 17.435l.366.102c3.541-4.55 7.024-8.786 10.977-13.402l.057.015c-.188 1.431-1.848 12.471-2.24 13.875-.069.252-.453.54-1.502.61l-1.51.092-.108.394c1.321.249 2.646.497 3.966.865s2.608.85 3.868 1.322l.109-.393-1.399-.845c-.62-.384-.901-.675-.799-1.585z"/><path d="M257.035 42.559l-.574-.286c-4.214 3.766-10.017 8.368-14.946 12.591-.795.027-1.669-.049-2.412-.125l-.182.366c1.018.375 2.035.751 3.002 1.23 1.044.52 2.009 1.13 2.975 1.74l.182-.365-1.842-1.925c1.092-1.28 2.274-2.613 3.641-3.594l3.29 1.57c1.097.544 2.206 1.128 3.288 1.7-.022.963-.407 3.832-.639 5.084-.938-.075-2.23-.294-2.96-.463l-.183.366c1.228.479 2.428.946 3.604 1.53 1.383.687 2.688 1.465 4.019 2.257l.182-.365-1.815-1.847 1.37-19.464zm-3.386 11.662l-5.874-2.919 6.439-5.425-.565 8.344zm21.08 13.205l2.008.324.232-.336-3.324-2.009c-1.151-.794-2.204-1.733-3.322-2.576l-.232.335 1.06 1.545c.798 1.152.795 1.363.53 1.747l-2.351 3.407c-.115.168-.388.511-.66.854-1.038-.291-2.032-.8-3.04-1.495-3.575-2.466-4.054-7.009-1.207-11.137 3.312-4.798 7.772-5.156 11.154-2.822.936.646 2.227 1.855 2.252 2.332.045.705-.409 2.339-.785 3.602l.336.231 1.393-2.118c.413-.6.867-1.208 1.322-1.814-.884-.929-1.855-1.778-3.175-2.688-4.247-2.929-11.302-3.688-15.093 1.807-3.112 4.51-1.953 10.019 3.517 13.792 1.607 1.11 3.863 2.1 4.975 2.44l.696-1.112 2.549-3.695c.347-.505.582-.696 1.165-.614zm3.93 8.247l3.358-3.996 3.528-3.926c1.843-2.029 2.018-2.186 2.551-1.954l2.384.99.268-.308-3.432-2.676c-1.231-1.071-2.233-2.096-3.213-3.102l-.268.309 1.312 2.223c.303.496.172.69-1.583 2.797l-3.396 4.039-3.528 3.925c-1.495 1.676-1.676 1.75-2.38 1.448l-2.173-.923-.268.308 3.519 2.75c.97.842 2.169 2.04 3.128 3.027l.267-.309-1.197-2.045c-.377-.675-.328-.865 1.123-2.577zm24.506 7.181c.408-.331.819-.31 1.423.01l1.828.98.411-.373-2.83-2.785c-.803-.887-1.537-1.874-2.252-2.838l-.303.273.706 1.955c.308.862.291 1.191-.276 1.781l-3.079 2.941-5.232 4.729-.084-.004 2.688-13.548a23.29 23.29 0 0 1 .891-3.318l-1.933-1.791c-.624-.691-1.163-1.462-1.703-2.232l-.302.274c.409.887.777 1.773 1.081 2.717l-.179.672-4.283 3.87-6.898 5.8c-.215.155-.585.136-.967-.069l-2.111-1.077-.304.273 2.675 2.613c.86.951 1.652 2.002 2.427 3.033l.303-.274-.836-1.838c-.373-.803-.336-1.111-.049-1.489.354-.436 4.574-4.33 7.43-6.91l2.422-2.188.04.044-1.938 9.726c-.661 3.269-1.281 6.539-2.084 9.78l.469.519 5.8-5.32c1.253-1.133 5.238-4.419 7.049-5.936zm-3.362 16.709l4.219-3.076 4.366-2.966c2.275-1.527 2.481-1.639 2.943-1.286l2.078 1.533.334-.235-2.691-3.419c-.94-1.335-1.667-2.57-2.376-3.782l-.333.234.74 2.473c.177.554.002.712-2.205 2.338l-4.267 3.108-4.366 2.966c-1.854 1.268-2.046 1.297-2.656.835l-1.888-1.417-.334.235 2.757 3.514c.738 1.049 1.616 2.499 2.31 3.686l.334-.233-.672-2.273c-.205-.747-.113-.919 1.707-2.235zm22.07 12.858c.475-.222.869-.104 1.379.353l1.54 1.392.488-.262-2.078-3.382c-.565-1.054-1.041-2.189-1.503-3.298l-.36.19.216 2.067c.09.912-.004 1.228-.697 1.664l-3.696 2.114-6.222 3.333-.079-.024 5.87-12.508c.492-1.057 1.025-2.038 1.662-3.008l-1.444-2.203c-.441-.822-.778-1.7-1.116-2.578l-.36.192c.184.961.328 1.908.396 2.898l-.336.609-5.09 2.727-8.094 3.974c-.245.099-.6-.009-.922-.3l-1.792-1.555-.359.193 1.969 3.181c.606 1.131 1.122 2.343 1.626 3.529l.36-.194-.37-1.985c-.168-.87-.058-1.16.312-1.458.447-.339 5.483-3.104 8.875-4.922l2.88-1.542.027.051-4.222 8.978c-1.428 3.015-2.816 6.041-4.376 8.996l.33.616 6.913-3.771c1.49-.797 6.15-3.029 8.273-4.067zm-.473 23.832l1.441 1.435.384-.137-1.522-3.572c-.471-1.318-.777-2.695-1.192-4.032l-.385.137-.043 1.873c-.025 1.403-.152 1.571-.591 1.728l-3.898 1.392c-.191.068-.613.188-1.035.309-.673-.844-1.182-1.838-1.595-2.991-1.461-4.091.806-8.058 5.527-9.744 5.491-1.962 9.32.354 10.703 4.226.384 1.07.724 2.806.466 3.207-.375.598-1.698 1.659-2.742 2.465l.139.385 2.367-.907c.688-.245 1.41-.472 2.135-.7-.175-1.271-.469-2.528-1.009-4.038-1.735-4.859-7.019-9.596-13.305-7.351-5.161 1.844-7.44 6.991-5.204 13.251.656 1.839 1.91 3.96 2.612 4.886l1.216-.496 4.228-1.51c.576-.207.88-.222 1.303.184zm-.125 17.454l5.456-.766.357 2.54c.491 3.493.481 3.847-.12 4.168l-2.089 1.059.057.403 3.485-.546 3.27-.401-.057-.406-2.154-.463c-.669-.142-.775-.479-1.266-3.972l-.356-2.541 3.232-.454 3.483-.342.849 6.032c.114.809.166 1.184-.659 1.594l-2.011.989.059.405 2.443-.401 2.029-.227-1.225-7.04-.787-7.279-.405.057-.466 2.538c-.112.664-.304.779-3.016 1.16l-10.449 1.468c-2.224.312-2.355.213-2.728-.558l-1.064-2.118-.403.056.835 4.27c.239 1.703.294 2.931.398 4.506l.403-.057.438-2.328c.169-.907.24-1.034 2.461-1.346zm15.904 10.438l-.782 2.111c-.308.821-.89.918-3.337.957l-8.191.132c-4.46.071-6.249 3.045-6.182 7.272.069 4.343 2.213 7.077 7.868 7.045l9.212-.09c.613.02.912.424 1.215 1.176l.516 1.275.408-.007c-.135-1.167-.27-2.303-.287-3.41-.021-1.283.076-2.537.172-3.792l-.408.009-.47 1.611c-.221.791-.476 1.234-1 1.299-2.008.266-6.641.369-10.227.427-3.498.056-5.422-1.75-5.471-4.81-.074-4.635 2.359-5.521 6.092-5.579l8.716-.053c1.022.042 1.172.273 1.78 1.866l.518 1.333.407-.007c-.141-1.544-.282-3.058-.307-4.603-.021-1.37.073-2.741.166-4.17l-.408.008zm-4.386 22.344v.409l2.331.875c.991.379 1.108.7 1.108 5.072h-12.709c-1.458 0-2.216-.059-2.624-.233-.379-.146-.729-.787-1.457-3.003h-.408l.233 4.459c0 1.808-.116 3.091-.233 4.462h.408c.729-2.217 1.078-2.829 1.457-3.003.408-.175 1.166-.233 2.624-.233h12.709c0 4.373-.117 4.693-1.108 5.072l-2.331.874v.409h4.955l-.232-7.581.232-7.579h-4.955zm4.547 17.466l-.816 2.097c-.321.817-.903.904-3.353.904h-8.191c-4.459 0-6.295 2.944-6.295 7.171 0 4.342 2.099 7.112 7.754 7.17l9.21.059c.612.029.904.437 1.195 1.195l.496 1.283h.408c-.117-1.167-.232-2.304-.232-3.412 0-1.282.115-2.536.232-3.789h-.408l-.496 1.604c-.233.786-.495 1.223-1.02 1.282-2.012.233-6.646.262-10.232.262-3.497 0-5.391-1.837-5.391-4.897 0-4.634 2.447-5.479 6.179-5.479l8.715.087c1.021.059 1.166.292 1.749 1.896l.496 1.341h.408c-.117-1.547-.232-3.062-.232-4.607 0-1.37.115-2.739.232-4.167h-.408zm0 22.221l-.816 2.449c-.204.641-.408.728-3.147.728h-10.553c-2.244 0-2.36-.116-2.622-.932l-.759-2.245h-.408l.233 4.577c0 1.02-.116 2.973-.233 4.226h.408l.786-2.333c.263-.756.904-.845 4.693-.845h3.352v2.246c-2.36 1.807-6.092 4.401-9.239 6.267.058.729.117 1.457.117 2.157 0 .671-.06 1.37-.117 2.041h.408c.292-1.633.496-1.778 3.031-3.47l6.006-4.022c.437 2.682 1.836 4.78 4.779 4.78 2.915 0 4.489-2.506 4.489-6.354 0-2.069-.232-3.731-.232-5.245 0-1.575.115-2.945.232-4.024h-.408zm-4.459 12.826c-3.207 0-3.644-2.507-3.644-5.218v-1.983h7.286l.029 2.682c.001 2.741-1.108 4.519-3.671 4.519zm4.459 7.84l-.816 2.448c-.204.643-.408.729-3.147.729h-10.553c-2.244 0-2.36-.117-2.622-.934l-.759-2.243h-.408l.233 7.462-.233 7.636h2.216c.845 0 1.719.117 2.564.176v-.409c-1.72-.524-2.652-.845-3.09-1.194-.35-.292-.379-.729-.379-3.848l.117-4.052 3.904-.146h3.965v3.031c0 3.527-.059 3.877-.699 4.109l-2.215.758v.408l3.526-.058 3.295.058v-.408l-2.07-.758c-.641-.232-.699-.582-.699-4.109v-3.031h3.586l3.322.146.059 4.11c0 3.352 0 3.584-.816 3.877l-2.186.758v.408l2.098-.088 2.216.088-.232-8.074.232-6.85h-.409zm-4.489 20.307c-5.479 0-5.13 9.121-9.269 9.121-2.712 0-3.761-2.127-3.761-4.46 0-.729.175-2.098.67-2.973l3.761-.991v-.407l-4.751-.495a11.09 11.09 0 0 0-.816 4.312c0 5.744 2.915 7.639 5.451 7.639 6.033 0 4.867-9.124 9.443-9.124 1.953 0 3.382 1.69 3.382 3.527 0 .989-.176 1.953-.555 2.944l-3.235 1.135v.321l3.994.175c.554-1.223.933-3.09.933-4.314 0-3.148-1.72-6.41-5.247-6.41zM82.879 293.081c6.093.28 12.116.561 18.21.561s12.117-.28 18.21-.561v11.907h-.98l-2.102-5.604c-.911-2.381-1.682-2.661-12.187-2.661v30.538c0 3.502.141 5.322.56 6.304.421.912 1.891 1.752 7.215 3.503v.98c-3.292-.279-6.375-.56-10.716-.56s-7.425.28-10.718.56v-.98c5.324-1.751 6.865-2.591 7.215-3.503.421-.981.562-2.802.562-6.304v-30.538c-10.507 0-11.277.28-12.188 2.661l-2.102 5.604h-.979v-11.907zm69.187 43.986l5.393-1.751c1.751-.562 1.961-.979 2.031-6.374l.209-12.678c0-4.203-.14-8.475-.209-12.677-.141-6.585-.211-7.146-1.542-7.565l-5.882-1.961v-.98c3.36.28 6.793.561 10.715.561 3.502 0 6.935-.28 10.436-.561v.98l-5.883 1.961c-1.33.42-1.401.98-1.54 7.565l-.21 12.677c0 4.203.14 8.475.21 12.538.068 5.394.279 5.814 2.03 6.445l5.393 1.819v.98c-3.291-.279-7.354-.56-10.436-.56-3.502 0-7.564.28-10.715.56v-.979zm56.803-11.558h.981l2.381 9.037c2.102 1.19 5.394 1.61 7.144 1.61 5.604 0 10.717-2.521 10.717-9.034 0-9.946-21.923-9.106-21.923-22.275 0-8.475 7.845-12.607 15.409-12.607 2.942 0 7.424.911 10.366 2.242l-.421 9.596h-.771l-2.731-7.773c-2.381-.91-4.691-1.331-7.073-1.331-4.414 0-8.476 3.433-8.476 8.124 0 10.996 21.924 8.195 21.924 22.693 0 6.094-4.554 13.1-18.351 13.1-3.362 0-6.375-.422-10.367-1.961l1.191-11.421zm65.352.002h.98l2.381 9.037c2.102 1.188 5.394 1.61 7.145 1.61 5.604 0 10.717-2.521 10.717-9.035 0-9.946-21.923-9.106-21.923-22.274 0-8.475 7.845-12.607 15.41-12.607 2.94 0 7.423.91 10.365 2.241l-.422 9.597h-.77l-2.731-7.775c-2.381-.91-4.692-1.33-7.074-1.33-4.412 0-8.475 3.432-8.475 8.123 0 10.997 21.923 8.195 21.923 22.693 0 6.094-4.554 13.1-18.351 13.1-3.363 0-6.374-.42-10.367-1.961l1.192-11.419zM42.275 359.968h295.203v4.721H42.275z"/></g><path fill-rule="evenodd" fill="#00703c" d="M83.762 278.501v-81.205c64.488-33.76 100.103 37.287 63.701 81.342l-63.701-.137zm216.555-104.484l-41.16 4.181c-4.783.521-14.76 2.183-20.782.106-1.218-.421-4.968-2.183-1.896-3.442l.066-.028c5.125-2.224 26.554-3.163 63.725-3.916l.047 3.099zm-.184 6.551c-10.186-.544-19.112.127-28.559.784l-11.671.979c-2.214.236-4.701.311-6.833 1.026-.845.28-1.652 1.088-.981 1.882.681.814 2.278 1.088 3.236 1.331 4.551 1.16 9.3 1.635 13.942 2.234l8.085 1.058c8.991 1.266 16.204 1.851 22.592 2.618l.189-11.912zm-.185 19.233c-126.656-36.726-79.833 68.067-66.377 78.585h66.373v-76.111l.004-2.474zm-216.2-8.999c8.332-2.289 16.01-4.053 20.704-4.907 25.21-4.584 13.658-3.38-19.513-28.392-1.96 15.675-1.191 33.299-1.191 33.299zm2.327-40.172c7.571 7.382 13.204 12.013 18.63 16.071 6.614 5.592 14.141 10.145 18.705 13.046 27.341 17.312 31.19-3.371-36.654-32.022-.219.842-.681 2.905-.681 2.905zm2.016-7.756c.548-1.87.499-1.762 1.143-3.587 8.868 2.392 22.127 5.333 33.538 9.019 33.963 35.999-34.681-5.432-34.681-5.432zm2.97-8.582c3.164 1.622 25.045 8.684 27.313 8.91 3.076.308-14.333-11.315-23.543-17.378-1.954 3.915-3.77 8.468-3.77 8.468zm5.507-11.522c.329-.566 1.448-2.891 1.783-3.453 12.238 6.933 44.219 28.936 41.264 29.155-.654.048-14.166-3.596-13.919-3.527s-19.506-15.266-29.128-22.175h0zm3.638-6.205c.794-1.26.821-1.6 1.663-2.821 5.635 4.366 10.518 7.762 16.752 8.937 14.212 2.677 14.982-5.938 14.982-5.938 4.331 8.997 23.621 39.834-2.156 20.306l-31.241-20.484zm5.573-4.987c10.019 9.169 12.934-.876 8.164-12.917-3.686 4.051-6.008 7.122-9.543 11.739l1.379 1.178zm14.34-18.669c9.121 11.429 18.369 32.367-5.02 24.84 8.194-1.16 4.653-17.073 1.77-21.854 0-.001 1.006-.952 3.25-2.986zm43.62 37.624c13.364 26.808-12.188 20.063-12.57 19.978.089-13.648-24.854-53.869-24.303-55.546 1.349-4.099 10.255 19.139 36.873 35.568zm-35.555-44.079c1.152 6.845 35.265 45.502 32.593 35.477-1.499-5.614-13.851-17.778-25.517-39.964l-7.076 4.487zm10.524-6.75c.513 2.213 13.46 23.28 15.331 25.947 12.41 17.698 19.688 25.009 25.391 20.91-9.09-12.87-17.925-23.146-37.152-48.768l-3.57 1.911zm9.401-4.666c5.536-2.61 7.993-3.365 13.991-5.014 3.391 5.801 9.956 14.263 15.8 18.724-20.764-.616-29.791-13.71-29.791-13.71zm20.081-6.543c3.791-.807 6.888-1.28 10.645-1.789.089.308 2.895 16.95 1.361 19.868-3.965-3.189-12.006-18.079-12.006-18.079zm15.141-2.226c2.596-.241 3.667-.268 6.315-.319.35 7.642 2.929 19.028-.503 22.605-3.22 3.352-6.217-14.902-5.799-22.476l-.013.19zm11.899-.267c-.062 1.755-.403 7.218-.403 7.218-.339 28.012 10.682 131.066 9.505 27.849l-1.872-34.562c-3.794-.445-7.23-.505-7.23-.505zm17.207 1.877c-1.488 7.124-1.81 21.086-3.284 27.302-2.347-1.127-2.521-12.569-1.088-28.017a530.92 530.92 0 0 0 4.372.715zm3.89.862c-2.066 8.109-3.329 19.219-2.289 19.668 4.69-1.774 14.49-10.129 19.208-14.236h0c-6.562-2.599-10.134-3.831-16.919-5.432h0zm22.455 7.91c2.81 1.355 3.973 1.981 6.771 3.571-12.893 12.924-29.732 17.745-32.101 13.202 0 0 17.392-14.985 25.031-16.913l.299.14zm10.176 5.608c-14.131 13.942-31.878 15.821-32.692 16.108-.746.262-6.895 1.138-6.815 9.538.011 9.397-1.909 15.8 6.597 11.147 1.615-1.002 3.346-2.292 5.228-3.675 12.975-9.551 27.061-24.847 31.957-30.312-1.398-.97-2.828-1.899-4.275-2.806h0zm8.331 5.748c-12.602 10.654-22.66 19.645-33.996 30.963-2.344 2.34-17.411 14.094-9.521 18.048 4.058 2.034 10.329-3.508 12.848-6.649 3.072-3.825 31.882-35.269 35.799-38.206-2.102-1.832-5.13-4.156-5.13-4.156zm14.429 13.188c-1.115.447-38.536 23.772-11.229-1.483 3.507-2.912 5.696-4.368 5.696-4.368s5.392 5.426 5.533 5.851zm5.819 6.907l-6.982 4.841c-29.709 22.224-47.729 19.177-23.571 5.375 9.437-5.389 28.08-13.296 28.08-13.296s1.672 1.981 2.473 3.08zm1.786 2.301c1.793 2.513 3.086 4.434 4.653 7.019-1.389 1.432-4.592 4.285-8.41 7.175-16.177 12.249-35.2 19.261-53.009 24.458-27.509 8.029 29.048-19.682 37.995-25.474 6.171-4.151 18.771-13.178 18.771-13.178zm-.646 15.742c-16.98 9.079-16.882 12.874.188 10.955 4.324-.486 8.57-2.243 12.803-4.845-1.934-4.896-2.778-6.032-5.129-10.565 0-.002-4.711 2.769-7.862 4.455zm14.866 10.944l-10.634 2.261c-6.173 1.605-13.2 1.747-19.283 2.154-12.153.812-19.112 4.703-33.309 9.103-4.975 1.543-10.018 3.026-12.759 7.091-2.897 4.303-2.337 11.3 4.253 12.703 6.635 1.415 13.881-2.137 19.67-5.268 18.306-9.903 25.778-12.454 38.906-17.731l14.732-5.674c-.601-2.104-1.576-4.639-1.576-4.639zm3.281 9.672c.359 1.372.599 2.46.899 3.757-10.812 6.612-20.097 12.519-25.113 14.913-3.477 1.658-10.545 3.278-14.202 3.772-9.765.887-12.301.146-10.822-2.347 2.371-4.002 49.238-20.095 49.238-20.095zm1.995 9.388c.767 4.722.807 5.269 1.149 10.159l-16.276 1.919c-19.303 2.676 15.127-12.078 15.127-12.078zm-130.344-23.337c3.634 7.104 7.103 14.273 10.073 21.052h0c2.518 5.974 6.076 13.07 6.004 3.379-.77-11.634-5.255-18.495-16.077-24.431h0zm3.38 52.766c2.254-.92-4.394-15.157-13.122-22.053h0c-1.071-.833-2.187-1.641-3.347-2.428 1.709 3.208 15.028 24.669 16.469 24.481h0zm-28.111-31.422c5.396 6.25 6.292 13.794 7.26 18.543h0c.894 4.578.35 7.421-3.062 2.162h0l-.004-.007a93.84 93.84 0 0 1-2.151-3.553c-4.779-7.333-4.779-7.333-11.445-16.726l-2.836-3.488c5.796 1.832 12.238 3.069 12.238 3.069zm45.402-54.209c6.156-4.51 4.599 29.728-1.368 27.096-2.309-3.108.496-27.259 1.368-27.096zm-7.218 19.947c1.478-.966 1.547-25.456-4.465-26.179-6.642-.801-15.223-2.686-24.272-9.111-.883-.628-2.997-2.378-3.038-2.256s28.826 39.471 31.775 37.546z"/></svg>